<?xml version="1.0" standalone="no"?>
<!DOCTYPE svg PUBLIC "-//W3C//DTD SVG 20010904//EN"
 "http://www.w3.org/TR/2001/REC-SVG-20010904/DTD/svg10.dtd">
<svg version="1.0" xmlns="http://www.w3.org/2000/svg"
 width="418.000000pt" height="489.000000pt" viewBox="0 0 418.000000 489.000000"
 preserveAspectRatio="xMidYMid meet">

<g transform="translate(0.000000,489.000000) scale(0.100000,-0.100000)"
fill="#000000" stroke="none">
<path d="M1150 4650 c0 -5 12 -10 27 -10 25 0 26 0 8 -20 -10 -11 -25 -20 -33
-20 -9 0 -12 -3 -8 -7 3 -4 -7 -21 -24 -38 l-31 -32 36 -6 c41 -7 85 6 85 25
0 9 -3 9 -12 0 -7 -7 -30 -12 -52 -12 l-40 0 29 30 c16 17 36 28 43 25 9 -3
12 0 9 9 -3 8 3 22 14 32 19 17 19 19 2 25 -27 11 -53 10 -53 -1z"/>
<path d="M1119 4633 c-13 -16 -12 -17 4 -4 9 7 17 15 17 17 0 8 -8 3 -21 -13z"/>
<path d="M130 4570 l0 -60 39 0 c22 0 42 4 45 8 2 4 -11 6 -30 4 l-34 -4 0 56
c0 31 -4 56 -10 56 -6 0 -10 -27 -10 -60z"/>
<path d="M948 4623 c6 -2 18 -2 25 0 6 3 1 5 -13 5 -14 0 -19 -2 -12 -5z"/>
<path d="M3640 4570 c0 -33 3 -60 8 -60 4 0 6 21 4 48 l-3 47 45 -50 45 -50
-1 65 c-1 60 -1 62 -7 20 l-6 -45 -34 43 c-19 23 -38 42 -43 42 -4 0 -8 -27
-8 -60z"/>
<path d="M893 4594 c-15 -23 -15 -29 -2 -52 8 -14 20 -27 28 -30 7 -2 3 6 -10
19 l-24 24 50 6 50 5 -50 5 -50 4 23 23 c12 12 18 22 12 22 -5 0 -17 -12 -27
-26z"/>
<path d="M329 4605 c-8 -13 1 -95 10 -95 4 0 5 17 3 38 -5 60 -7 68 -13 57z"/>
<path d="M559 4605 c-8 -13 1 -95 10 -95 4 0 5 17 3 38 -5 60 -7 68 -13 57z"/>
<path d="M710 4588 c1 -21 2 -21 11 -5 9 16 39 24 39 11 0 -3 -11 -19 -25 -36
-34 -40 -32 -48 15 -48 30 0 40 4 40 16 0 13 -3 14 -15 4 -28 -24 -35 -4 -10
30 14 18 25 38 25 42 0 4 -18 8 -40 8 -35 0 -40 -3 -40 -22z"/>
<path d="M412 4581 c13 -22 28 -28 28 -11 0 5 -9 14 -20 20 -19 10 -20 10 -8
-9z"/>
<path d="M470 4595 c-7 -34 -3 -85 5 -85 7 0 9 16 7 38 -4 42 -9 63 -12 47z"/>
<path d="M4022 4581 c13 -22 28 -28 28 -11 0 5 -9 14 -20 20 -19 10 -20 10 -8
-9z"/>
<path d="M235 4580 c-3 -5 -1 -10 4 -10 6 0 11 5 11 10 0 6 -2 10 -4 10 -3 0
-8 -4 -11 -10z"/>
<path d="M272 4553 c2 -20 8 -38 13 -40 7 -2 9 12 7 37 -2 22 -8 40 -14 40 -5
0 -8 -17 -6 -37z"/>
<path d="M374 4576 c-17 -44 21 -86 50 -55 8 9 8 10 -2 5 -20 -12 -43 13 -38
40 5 26 -1 32 -10 10z"/>
<path d="M505 4577 c12 -10 16 -22 13 -40 -3 -17 -1 -27 6 -27 7 0 10 15 8 40
-3 33 -8 40 -25 40 -20 0 -20 -1 -2 -13z"/>
<path d="M3764 4576 c-9 -23 0 -59 15 -64 9 -3 11 0 6 8 -4 7 -8 26 -7 41 1
31 -5 38 -14 15z"/>
<path d="M3815 4549 c0 -34 2 -37 13 -22 15 22 15 38 -1 51 -10 9 -13 3 -12
-29z"/>
<path d="M3868 4550 c2 -22 8 -40 13 -40 5 0 9 18 9 40 0 26 -5 40 -13 40 -9
0 -11 -12 -9 -40z"/>
<path d="M3984 4576 c-17 -44 21 -86 50 -55 8 9 8 10 -2 5 -20 -12 -43 13 -38
40 5 26 -1 32 -10 10z"/>
<path d="M3910 4571 c0 -6 9 -16 20 -23 11 -7 20 -19 20 -26 0 -7 5 -10 10 -7
17 10 11 23 -20 45 -16 12 -30 17 -30 11z"/>
<path d="M242 4548 c-17 -17 -15 -38 4 -38 13 0 14 3 5 13 -8 10 -7 17 1 25 7
7 10 12 7 12 -3 0 -10 -5 -17 -12z"/>
<path d="M3910 4520 c0 -5 5 -10 11 -10 5 0 7 5 4 10 -3 6 -8 10 -11 10 -2 0
-4 -4 -4 -10z"/>
<path d="M1896 4494 c-22 -22 -21 -25 21 -61 32 -27 36 -34 23 -44 -13 -9 -13
-10 0 -6 29 7 23 40 -11 69 -33 27 -33 29 -15 43 11 8 15 15 9 15 -7 0 -19 -7
-27 -16z"/>
<path d="M2235 4445 c0 -37 4 -65 10 -65 6 0 9 26 7 65 -5 84 -17 84 -17 0z"/>
<path d="M3195 4445 c0 -42 4 -65 12 -65 6 0 9 9 6 23 l-5 22 20 -22 c11 -13
26 -23 34 -23 8 0 9 3 3 8 -5 4 -16 15 -24 25 -11 14 -11 20 0 35 11 14 10 13
-9 -2 l-22 -19 0 41 c0 23 -3 42 -7 42 -5 0 -8 -29 -8 -65z"/>
<path d="M1946 4485 c4 -8 8 -15 10 -15 2 0 4 7 4 15 0 8 -4 15 -10 15 -5 0
-7 -7 -4 -15z"/>
<path d="M2189 4475 c-8 -13 1 -95 10 -95 4 0 5 17 3 38 -5 60 -7 68 -13 57z"/>
<path d="M2849 4475 c-8 -13 1 -95 10 -95 4 0 5 17 3 38 -5 60 -7 68 -13 57z"/>
<path d="M2090 4465 c-7 -34 -3 -85 5 -85 7 0 9 16 7 38 -4 42 -9 63 -12 47z"/>
<path d="M2372 4451 c13 -22 28 -28 28 -11 0 5 -9 14 -20 20 -19 10 -20 10 -8
-9z"/>
<path d="M2670 4465 c-7 -34 -3 -85 5 -85 7 0 9 16 7 38 -4 42 -9 63 -12 47z"/>
<path d="M2792 4451 c13 -22 28 -28 28 -11 0 5 -9 14 -20 20 -19 10 -20 10 -8
-9z"/>
<path d="M3130 4465 c-7 -34 -3 -85 5 -85 7 0 9 16 7 38 -4 42 -9 63 -12 47z"/>
<path d="M2005 4429 c18 -34 16 -75 -3 -71 -6 1 -12 -3 -12 -9 0 -6 6 -9 13
-7 14 5 56 85 56 108 0 8 -6 2 -13 -15 l-13 -30 -13 28 c-7 15 -17 27 -22 27
-5 0 -1 -14 7 -31z"/>
<path d="M2130 4445 c7 -8 10 -26 8 -40 -3 -15 -1 -25 6 -25 7 0 10 15 8 40
-3 27 -9 40 -19 40 -13 0 -13 -3 -3 -15z"/>
<path d="M2285 4420 c0 -22 5 -40 10 -40 6 0 9 17 7 40 -5 52 -18 52 -17 0z"/>
<path d="M2334 4446 c-17 -44 21 -86 50 -55 8 9 8 10 -2 5 -20 -12 -43 13 -38
40 5 26 -1 32 -10 10z"/>
<path d="M2490 4420 c0 -22 5 -40 10 -40 6 0 10 18 10 40 0 22 -4 40 -10 40
-5 0 -10 -18 -10 -40z"/>
<path d="M2705 4447 c12 -10 16 -22 13 -40 -3 -17 -1 -27 6 -27 7 0 10 15 8
40 -3 33 -8 40 -25 40 -20 0 -20 -1 -2 -13z"/>
<path d="M2754 4446 c-17 -44 21 -86 50 -55 8 9 8 10 -2 5 -20 -12 -43 13 -38
40 5 26 -1 32 -10 10z"/>
<path d="M2902 4428 c14 -43 24 -53 31 -34 4 9 3 16 -2 16 -5 0 -12 11 -15 25
-4 14 -11 25 -16 25 -5 0 -4 -14 2 -32z"/>
<path d="M2940 4440 c0 -11 4 -20 9 -20 5 0 11 -10 15 -22 5 -19 8 -21 16 -8
13 19 13 33 0 25 -5 -3 -12 6 -16 20 -7 30 -24 33 -24 5z"/>
<path d="M2995 4449 c-4 -6 -5 -12 -2 -15 2 -3 7 2 10 11 7 17 1 20 -8 4z"/>
<path d="M3034 4446 c-9 -23 0 -59 15 -64 9 -3 11 0 6 8 -4 7 -8 26 -7 41 1
31 -5 38 -14 15z"/>
<path d="M3086 4431 c5 -23 3 -36 -7 -42 -10 -6 -11 -9 -1 -9 7 0 18 11 24 25
10 21 9 29 -5 43 -16 16 -17 15 -11 -17z"/>
<path d="M3350 4440 c-6 -12 -8 -29 -4 -38 5 -13 9 -8 15 18 9 42 5 50 -11 20z"/>
<path d="M3396 4418 c-4 -23 -12 -48 -18 -55 -7 -9 -7 -13 0 -13 6 0 18 23 27
52 18 61 17 58 6 58 -5 0 -11 -19 -15 -42z"/>
<path d="M672 4386 l-2 -68 -25 16 -26 17 26 -50 c14 -28 25 -53 25 -56 0 -3
-97 -5 -215 -5 l-215 0 0 -110 0 -110 215 0 215 0 0 -260 c0 -239 -4 -283 -25
-250 -3 6 -10 10 -16 10 -5 0 2 -22 16 -50 l25 -50 -215 0 -216 0 3 -107 3
-108 213 -3 c179 -2 212 -5 212 -17 0 -13 -32 -15 -215 -15 l-216 0 3 -107 3
-108 200 -2 c110 -1 206 -2 213 -2 6 -1 12 -8 12 -16 0 -13 -31 -15 -215 -15
l-216 0 3 -107 3 -108 213 -3 c179 -2 212 -5 212 -17 0 -13 -32 -15 -215 -15
l-216 0 3 -107 3 -108 213 -3 c179 -2 212 -5 212 -17 0 -13 -32 -15 -215 -15
l-216 0 3 -107 3 -108 213 -3 c179 -2 212 -5 212 -17 0 -13 -32 -15 -215 -15
l-216 0 3 -107 3 -108 213 -3 c179 -2 212 -5 212 -17 0 -13 -32 -15 -215 -15
l-216 0 3 -107 3 -108 213 -3 c179 -2 212 -5 212 -17 0 -13 -32 -15 -215 -15
l-216 0 3 -107 3 -108 213 -3 212 -2 0 -96 0 -96 -25 16 -26 17 26 -50 c14
-28 25 -52 25 -54 0 -3 -23 -7 -50 -9 -34 -4 -59 -13 -75 -28 -21 -20 -28 -22
-50 -12 -41 19 -103 14 -146 -10 -39 -22 -89 -100 -89 -140 0 -10 -10 -20 -24
-24 -63 -15 -99 -122 -61 -180 15 -24 15 -28 1 -59 -20 -42 -20 -58 1 -102 11
-23 29 -41 52 -50 20 -9 51 -33 69 -54 53 -62 112 -84 180 -68 32 8 39 6 57
-15 35 -40 72 -58 123 -58 58 0 101 20 135 63 23 30 26 31 60 20 70 -23 164
30 183 104 4 16 15 26 35 30 88 20 145 130 116 226 -9 30 -11 53 -5 69 16 45
-1 102 -43 142 -22 21 -39 45 -39 54 0 9 -15 31 -34 50 -28 28 -41 34 -78 34
-24 0 -53 -6 -63 -14 -17 -12 -23 -11 -49 11 -24 20 -37 24 -69 20 -21 -3 -49
-14 -60 -25 -22 -20 -22 -20 -46 -1 l-25 20 28 56 27 56 -25 -17 -26 -16 0 95
0 95 213 2 212 3 3 108 3 107 -216 0 c-183 0 -215 2 -215 15 0 12 33 15 213
17 l212 3 3 108 3 107 -216 0 c-183 0 -215 2 -215 15 0 12 33 15 213 17 l212
3 3 108 3 107 -216 0 c-183 0 -215 2 -215 15 0 12 33 15 213 17 l212 3 3 108
3 107 -216 0 c-183 0 -215 2 -215 15 0 12 33 15 213 17 l212 3 3 108 3 107
-216 0 c-183 0 -215 2 -215 15 0 12 33 15 213 17 l212 3 3 108 3 107 -216 0
c-193 0 -216 2 -213 16 3 14 30 16 213 17 l210 2 3 108 3 107 -216 0 c-183 0
-215 2 -215 15 0 12 33 15 213 17 l212 3 3 107 3 108 -215 2 -216 3 26 54 c21
46 22 52 6 38 -10 -9 -22 -17 -25 -17 -4 0 -7 117 -7 260 l0 260 215 0 215 0
0 110 0 110 -215 0 c-118 0 -215 2 -215 5 0 3 11 28 25 56 l26 50 -25 -16 -25
-17 -4 69 -3 68 -2 -69z m420 -233 c2 -43 2 -88 0 -100 l-3 -23 -420 0 -419 0
0 100 0 100 419 0 419 0 4 -77z m6 -840 l3 -93 -426 0 -425 0 0 95 0 95 423
-2 422 -3 3 -92z m0 -250 l3 -93 -426 0 -425 0 0 95 0 95 423 -2 422 -3 3 -92z
m0 -250 l3 -93 -426 0 -425 0 0 95 0 95 423 -2 422 -3 3 -92z m0 -250 c1 -51
-1 -93 -5 -93 -35 -1 -488 -1 -645 0 l-198 0 0 95 0 95 423 -2 422 -3 3 -92z
m0 -250 l3 -93 -426 0 -425 0 0 95 0 95 423 -2 422 -3 3 -92z m0 -250 c3 -91
2 -93 -20 -93 -74 -1 -509 -1 -655 -1 l-173 1 0 95 0 95 423 -2 422 -3 3 -92z
m0 -250 l3 -93 -426 0 -425 0 0 95 0 95 423 -2 422 -3 3 -92z m0 -250 l3 -93
-426 0 -425 0 0 95 0 95 423 -2 422 -3 3 -92z m-221 -405 c9 -7 12 -21 8 -36
-6 -25 -6 -25 30 6 72 64 161 28 177 -72 2 -11 11 -20 21 -22 23 -3 43 -28 57
-71 13 -37 -1 -103 -25 -123 -8 -7 -15 -17 -15 -23 0 -5 8 -2 19 7 17 15 19
15 25 1 3 -9 6 -38 6 -64 0 -56 -27 -103 -79 -138 -43 -29 -61 -29 -61 0 0 12
-5 29 -10 37 -7 10 -8 1 -4 -31 12 -89 -46 -160 -133 -162 -36 0 -50 5 -64 21
l-17 22 -6 -23 c-8 -34 -69 -88 -110 -97 -22 -5 -52 -4 -74 2 -41 11 -102 67
-103 95 0 15 -2 14 -9 -4 -8 -20 -17 -23 -67 -23 -40 0 -68 6 -90 20 -36 21
-68 64 -59 78 3 5 -12 12 -32 16 -68 10 -105 77 -78 140 13 31 19 35 43 32 15
-2 20 -1 11 1 -10 2 -29 18 -43 34 -34 41 -34 97 0 137 27 32 61 46 69 28 2
-6 5 5 5 25 1 48 40 119 81 147 46 31 115 30 162 -2 34 -23 35 -23 31 -2 -5
26 41 56 87 56 42 0 93 -27 86 -46 -3 -8 -1 -14 4 -14 5 0 11 9 15 19 13 43
103 61 142 29z"/>
<path d="M335 4135 c0 -30 3 -55 8 -55 4 0 7 17 7 38 l1 37 33 -38 34 -38 4
55 c1 31 0 56 -4 56 -5 0 -8 -17 -8 -37 l-1 -38 -30 38 c-17 20 -34 37 -37 37
-4 0 -7 -25 -7 -55z"/>
<path d="M795 4135 c0 -30 5 -55 10 -55 6 0 9 23 7 55 -5 71 -17 71 -17 0z"/>
<path d="M490 4145 c7 -8 10 -27 7 -41 -4 -23 -3 -24 10 -11 18 17 10 52 -14
61 -13 5 -14 4 -3 -9z"/>
<path d="M548 4153 c-13 -3 -18 -14 -18 -39 0 -19 5 -34 10 -34 6 0 10 13 10
29 0 20 6 31 18 33 9 2 13 6 7 9 -5 3 -18 4 -27 2z"/>
<path d="M635 4119 c0 -21 5 -39 10 -39 7 0 9 15 7 35 -6 49 -18 52 -17 4z"/>
<path d="M673 4147 c4 -10 7 -30 7 -43 0 -13 5 -24 10 -24 17 0 11 57 -7 71
-15 12 -16 12 -10 -4z"/>
<path d="M970 4146 c-20 -25 -8 -61 20 -63 l25 -3 -23 10 c-16 7 -22 17 -20
32 4 25 28 37 28 13 0 -9 5 -13 10 -10 8 5 7 11 -1 21 -15 18 -23 18 -39 0z"/>
<path d="M454 4136 c-8 -22 -1 -49 14 -54 11 -3 12 0 2 18 -6 12 -9 28 -6 36
3 8 3 14 0 14 -2 0 -7 -6 -10 -14z"/>
<path d="M590 4115 c0 -19 4 -35 9 -35 5 0 11 16 13 35 3 24 0 35 -9 35 -8 0
-13 -13 -13 -35z"/>
<path d="M754 4123 c1 -14 -5 -28 -13 -31 -10 -3 -12 0 -8 12 4 10 3 15 -3 11
-21 -13 -10 -34 18 -33 25 1 27 4 24 34 -5 40 -20 46 -18 7z"/>
<path d="M845 4115 c0 -19 5 -35 10 -35 7 0 9 15 7 35 -2 19 -7 35 -11 35 -3
0 -6 -16 -6 -35z"/>
<path d="M902 4120 c-29 -38 -28 -40 11 -39 23 1 26 3 9 6 l-22 4 21 30 c27
38 9 38 -19 -1z"/>
<path d="M585 3305 c0 -39 4 -55 13 -55 9 0 11 7 7 21 -5 15 -2 22 14 26 12 3
21 9 21 13 0 5 -10 6 -21 3 -19 -5 -21 -3 -15 20 4 19 2 27 -6 27 -9 0 -13
-17 -13 -55z"/>
<path d="M620 3356 c0 -2 9 -6 20 -9 11 -3 18 -1 14 4 -5 9 -34 13 -34 5z"/>
<path d="M687 3342 c-31 -34 -16 -92 22 -92 13 1 13 2 -1 11 -21 12 -24 69 -6
87 7 7 10 12 7 12 -3 0 -13 -8 -22 -18z"/>
<path d="M736 3353 c5 -5 12 -12 16 -18 4 -6 8 -2 8 8 0 9 -7 17 -17 17 -9 0
-12 -3 -7 -7z"/>
<path d="M585 3055 c0 -35 4 -55 12 -55 6 0 9 9 6 21 -4 15 0 22 16 26 11 3
21 9 21 13 0 5 -9 6 -21 3 -17 -5 -20 -2 -17 13 2 13 12 19 30 19 15 -1 24 3
22 7 -3 4 -20 8 -37 8 l-32 0 0 -55z"/>
<path d="M687 3092 c-31 -34 -16 -92 22 -92 13 1 13 2 -1 11 -21 12 -24 69 -6
87 7 7 10 12 7 12 -3 0 -13 -8 -22 -18z"/>
<path d="M730 3106 c0 -2 7 -6 15 -10 8 -3 15 -1 15 4 0 6 -7 10 -15 10 -8 0
-15 -2 -15 -4z"/>
<path d="M585 2805 c0 -35 4 -55 12 -55 6 0 9 9 6 21 -4 15 0 22 16 26 11 3
21 9 21 13 0 5 -10 6 -21 3 -19 -5 -21 -3 -15 20 4 19 2 27 -6 27 -9 0 -13
-17 -13 -55z"/>
<path d="M620 2856 c0 -2 9 -6 20 -9 11 -3 18 -1 14 4 -5 9 -34 13 -34 5z"/>
<path d="M687 2842 c-31 -34 -16 -92 22 -92 13 1 13 2 -1 11 -21 12 -24 69 -6
87 7 7 10 12 7 12 -3 0 -13 -8 -22 -18z"/>
<path d="M730 2856 c0 -2 7 -6 15 -10 8 -3 15 -1 15 4 0 6 -7 10 -15 10 -8 0
-15 -2 -15 -4z"/>
<path d="M585 2555 c0 -34 4 -55 11 -55 7 0 9 10 6 25 -3 20 0 25 17 25 11 0
21 4 21 9 0 5 -10 7 -21 4 -19 -5 -21 -3 -15 20 4 19 2 27 -6 27 -9 0 -13 -17
-13 -55z"/>
<path d="M620 2606 c0 -2 9 -6 20 -9 11 -3 18 -1 14 4 -5 9 -34 13 -34 5z"/>
<path d="M687 2592 c-31 -34 -16 -92 22 -92 13 1 13 2 -1 11 -21 12 -24 69 -6
87 7 7 10 12 7 12 -3 0 -13 -8 -22 -18z"/>
<path d="M730 2606 c0 -2 7 -6 15 -10 8 -3 15 -1 15 4 0 6 -7 10 -15 10 -8 0
-15 -2 -15 -4z"/>
<path d="M585 2305 c0 -35 4 -55 12 -55 6 0 9 9 6 21 -4 15 0 22 16 26 11 3
21 9 21 13 0 5 -10 6 -21 3 -19 -5 -21 -3 -15 20 4 19 2 27 -6 27 -9 0 -13
-17 -13 -55z"/>
<path d="M620 2356 c0 -2 9 -6 20 -9 11 -3 18 -1 14 4 -5 9 -34 13 -34 5z"/>
<path d="M687 2342 c-31 -34 -16 -92 22 -92 13 1 13 2 -1 11 -12 6 -18 22 -18
44 0 22 6 38 18 44 9 6 12 11 6 11 -6 0 -18 -8 -27 -18z"/>
<path d="M730 2356 c0 -2 7 -6 15 -10 8 -3 15 -1 15 4 0 6 -7 10 -15 10 -8 0
-15 -2 -15 -4z"/>
<path d="M585 2055 c0 -35 4 -55 12 -55 6 0 9 9 6 21 -4 15 0 22 16 26 11 3
21 9 21 13 0 5 -10 6 -21 3 -19 -5 -21 -3 -15 20 4 19 2 27 -6 27 -9 0 -13
-17 -13 -55z"/>
<path d="M620 2106 c0 -2 9 -6 20 -9 11 -3 18 -1 14 4 -5 9 -34 13 -34 5z"/>
<path d="M687 2092 c-31 -34 -16 -92 22 -92 13 1 13 2 -1 11 -21 12 -24 69 -6
87 7 7 10 12 7 12 -3 0 -13 -8 -22 -18z"/>
<path d="M730 2106 c0 -2 7 -6 15 -10 8 -3 15 -1 15 4 0 6 -7 10 -15 10 -8 0
-15 -2 -15 -4z"/>
<path d="M585 1805 c0 -35 4 -55 12 -55 6 0 9 9 6 21 -4 15 0 22 16 26 11 3
21 9 21 13 0 5 -9 6 -20 3 -23 -6 -28 15 -8 35 9 9 8 12 -7 12 -17 0 -20 -7
-20 -55z"/>
<path d="M630 1856 c0 -2 7 -7 16 -10 8 -3 12 -2 9 4 -6 10 -25 14 -25 6z"/>
<path d="M687 1842 c-31 -34 -16 -92 22 -92 13 1 13 2 -1 11 -21 12 -24 69 -6
87 7 7 10 12 7 12 -3 0 -13 -8 -22 -18z"/>
<path d="M730 1856 c0 -2 7 -6 15 -10 8 -3 15 -1 15 4 0 6 -7 10 -15 10 -8 0
-15 -2 -15 -4z"/>
<path d="M585 1555 c0 -35 4 -55 12 -55 6 0 9 9 6 21 -4 15 0 22 16 26 11 3
21 9 21 13 0 5 -9 6 -21 3 -17 -5 -20 -2 -17 13 2 13 12 19 30 19 15 -1 24 3
22 7 -3 4 -20 8 -37 8 l-32 0 0 -55z"/>
<path d="M687 1592 c-31 -34 -16 -92 22 -92 13 1 13 2 -1 11 -21 12 -24 69 -6
87 7 7 10 12 7 12 -3 0 -13 -8 -22 -18z"/>
<path d="M730 1606 c0 -2 7 -6 15 -10 8 -3 15 -1 15 4 0 6 -7 10 -15 10 -8 0
-15 -2 -15 -4z"/>
<path d="M815 903 c13 -13 16 -30 13 -75 l-4 -59 22 28 c12 15 30 42 39 58
l17 30 -21 -25 c-11 -14 -21 -28 -21 -32 0 -5 -4 -8 -9 -8 -4 0 -6 10 -4 23 6
31 -13 77 -32 77 -15 0 -15 -2 0 -17z"/>
<path d="M907 906 c-3 -8 -2 -16 4 -18 5 -2 13 -30 17 -63 l8 -60 32 44 c17
24 32 49 32 55 0 6 -9 -4 -20 -21 -11 -18 -22 -33 -24 -33 -3 0 -10 25 -16 55
-11 54 -23 68 -33 41z"/>
<path d="M990 913 c0 -5 5 -15 10 -23 8 -12 10 -11 10 8 0 12 -4 22 -10 22 -5
0 -10 -3 -10 -7z"/>
<path d="M626 874 c-41 -41 -4 -105 59 -103 29 1 29 1 -5 8 -44 9 -60 18 -60
36 0 9 15 15 48 18 l47 3 -47 2 c-53 2 -60 13 -26 36 12 9 17 16 11 16 -6 0
-19 -7 -27 -16z"/>
<path d="M376 833 c23 -54 30 -59 47 -27 l15 29 11 -28 c13 -33 24 -29 42 15
7 18 18 36 23 40 7 5 5 8 -5 8 -9 0 -20 -13 -26 -32 l-11 -33 -13 33 c-7 17
-19 32 -27 32 -7 0 -10 -4 -7 -10 3 -5 2 -17 -3 -27 -9 -15 -11 -14 -20 4 -6
11 -8 23 -5 27 3 3 -3 6 -15 6 -20 0 -21 -1 -6 -37z"/>
<path d="M2410 4441 c0 -6 9 -16 20 -23 11 -7 20 -19 20 -26 0 -7 5 -10 10 -7
17 10 11 23 -20 45 -16 12 -30 17 -30 11z"/>
<path d="M2540 4441 c0 -6 9 -16 20 -23 11 -7 20 -19 20 -26 0 -7 5 -10 10 -7
17 10 11 23 -20 45 -16 12 -30 17 -30 11z"/>
<path d="M3720 4167 l0 -287 -25 0 c-23 0 -24 2 -15 20 6 11 8 20 5 20 -3 0
-23 -9 -45 -20 -22 -11 -42 -20 -45 -20 -3 0 -5 23 -5 50 l0 50 -115 0 -115 0
0 -50 0 -50 -275 0 c-273 0 -276 0 -265 20 13 25 9 25 -41 -1 -23 -11 -42 -19
-43 -17 -1 2 -10 15 -19 30 -9 14 -26 29 -37 33 -13 4 -20 15 -20 31 l0 24
280 0 280 0 0 110 0 110 -565 0 -565 0 0 -110 0 -110 280 0 280 0 0 -22 c0
-15 -11 -29 -30 -40 -53 -30 -53 -106 1 -133 22 -12 29 -22 27 -38 -3 -21 -7
-22 -150 -25 l-148 -3 0 -49 c0 -28 -2 -50 -5 -50 -3 0 -23 9 -45 20 -22 11
-42 20 -45 20 -3 0 -1 -9 5 -20 11 -20 8 -20 -154 -20 l-165 0 -3 48 -3 47
-115 0 -115 0 -3 -53 -3 -53 -44 25 c-47 28 -67 34 -47 14 20 -20 13 -32 -28
-50 -91 -38 -158 -216 -194 -518 -26 -217 -36 -421 -46 -950 -11 -594 -17
-782 -31 -935 -19 -204 -56 -331 -100 -342 -30 -8 -22 -23 14 -23 40 0 105
-29 166 -74 69 -50 127 -76 182 -83 54 -6 53 -6 38 -34 -9 -18 -6 -18 40 6
l51 25 0 -55 0 -55 120 0 120 0 0 50 0 50 165 0 c91 0 165 -4 165 -8 0 -4 -5
-13 -12 -20 -18 -18 -2 -15 42 8 22 11 41 20 44 20 3 0 6 -24 8 -52 l3 -53
145 0 145 0 3 -107 c2 -99 -4 -128 -23 -98 -3 6 -10 10 -16 10 -5 0 2 -23 16
-50 14 -28 27 -50 30 -50 7 0 45 77 45 91 0 7 -8 5 -20 -6 l-21 -19 3 115 3
114 145 1 145 0 3 112 3 112 -151 0 -150 0 0 25 c0 18 7 28 24 35 14 5 30 19
37 32 6 13 13 24 14 26 2 2 21 -6 44 -17 50 -26 54 -26 41 -1 -11 20 -8 20
265 20 l275 0 0 -50 0 -50 115 0 115 0 0 50 c0 28 2 50 5 50 3 0 23 -9 45 -20
49 -25 53 -25 40 0 -10 20 -8 20 135 20 l145 0 0 1765 c0 1167 -3 1765 -10
1765 -7 0 -11 -597 -12 -1755 l-3 -1756 -120 0 c-160 0 -151 -1 -137 13 26 26
10 27 -38 3 l-50 -25 0 55 0 56 -112 -3 -113 -3 -3 -45 c-2 -24 -7 -47 -12
-50 -4 -3 -128 -4 -276 -2 -204 2 -265 5 -256 14 26 26 10 27 -37 4 l-49 -25
-6 24 c-4 14 -20 32 -36 40 -21 11 -30 23 -30 40 l0 25 280 0 280 0 0 105 0
105 -280 0 -280 0 0 45 0 45 150 0 150 0 0 110 0 109 -147 3 -148 3 -3 26 c-3
22 2 28 23 33 17 4 31 18 38 36 l11 28 49 -24 c50 -26 70 -27 42 -4 -8 7 -15
17 -15 22 0 5 115 8 275 8 l275 -2 0 -49 0 -49 115 0 115 0 0 50 0 50 51 -26
c51 -25 73 -28 44 -4 -30 25 -14 30 90 30 l105 0 -2 1373 -3 1372 -2 -1367 -3
-1368 -100 0 c-98 0 -100 1 -90 20 13 25 9 25 -40 0 -22 -11 -42 -20 -45 -20
-3 0 -5 23 -5 50 l0 50 -115 0 -115 0 0 -50 0 -50 -276 0 -276 0 16 25 17 26
-51 -26 c-29 -15 -53 -25 -54 -23 -1 2 -10 15 -19 30 -9 14 -26 29 -37 33 -13
4 -20 15 -20 31 l0 24 280 0 280 0 0 110 0 110 -280 0 -280 0 0 45 0 45 280 0
280 0 0 110 0 110 -280 0 -280 0 20 40 c26 51 26 68 0 45 -20 -18 -20 -17 -20
128 l0 146 148 3 147 3 3 113 3 112 -151 0 c-149 0 -150 0 -150 23 0 14 11 28
31 40 17 9 33 26 36 37 7 24 5 24 53 0 22 -11 42 -20 45 -20 3 0 1 9 -5 20
-11 20 -8 20 265 20 l275 0 0 -50 0 -50 115 0 115 0 0 50 c0 28 2 50 5 50 3 0
23 -9 45 -20 22 -11 42 -20 45 -20 3 0 1 9 -5 20 -10 19 -8 20 60 20 l70 0 0
686 c0 454 -3 683 -10 679 -7 -4 -10 -242 -10 -681 l0 -674 -60 0 c-55 0 -75
10 -50 25 6 3 10 10 10 16 0 5 -22 -2 -50 -16 l-50 -25 0 55 0 56 -112 -3
-113 -3 -3 -52 -3 -51 -269 -2 c-247 -1 -303 4 -270 25 5 3 10 10 10 16 0 5
-22 -2 -48 -15 l-48 -24 -11 28 c-7 18 -21 32 -38 36 -21 5 -26 11 -23 33 l3
26 278 0 277 0 0 108 0 107 -280 0 -280 0 0 45 0 45 150 0 150 0 0 110 0 110
-150 0 -150 0 0 25 c0 17 9 29 30 40 16 8 32 26 36 40 l6 24 49 -24 c58 -30
68 -31 44 -5 -17 19 -15 19 250 22 147 2 271 1 275 -2 5 -3 10 -26 12 -50 l3
-45 113 -3 112 -3 0 56 0 55 50 -25 c28 -14 50 -21 50 -16 0 6 -6 13 -12 18
-9 5 -2 10 20 13 l33 5 0 289 c0 159 -3 291 -6 294 -3 3 -5 -124 -5 -281z
m-510 -57 l0 -100 -555 0 -555 0 0 100 0 100 555 0 555 0 0 -100z m370 -235
l0 -95 -105 0 -105 0 0 95 0 95 105 0 105 0 0 -95z m-886 44 c48 -38 24 -109
-37 -109 -65 0 -91 70 -41 109 15 12 32 21 39 21 7 0 24 -9 39 -21z m-774
-289 l0 -100 -100 0 -100 0 0 100 0 100 100 0 100 0 0 -100z m1030 0 l0 -100
-295 0 -295 0 0 100 0 100 295 0 295 0 0 -100z m-1338 -22 c-23 -23 -12 -28
26 -12 20 9 42 18 49 21 8 3 13 -11 15 -44 l3 -48 115 0 115 0 3 48 3 47 165
0 c162 0 165 0 154 -20 -6 -11 -8 -20 -5 -20 3 0 23 9 45 20 22 11 42 20 45
20 3 0 5 -22 5 -50 l0 -49 148 -3 147 -3 0 -40 0 -40 -277 -3 -278 -2 0 -105
0 -105 278 -2 c277 -3 277 -3 280 -25 2 -16 -5 -26 -27 -38 -54 -27 -56 -97
-4 -130 20 -13 32 -28 33 -42 0 -23 -1 -23 -150 -23 l-150 0 0 -55 0 -55 -50
25 c-27 14 -50 21 -50 16 0 -6 5 -13 10 -16 32 -20 -3 -25 -155 -24 l-165 0 0
50 0 49 -120 0 -120 0 0 -50 c0 -27 -3 -50 -6 -50 -3 0 -25 12 -50 26 -42 25
-58 22 -31 -5 9 -10 9 -15 0 -18 -34 -13 -80 -53 -100 -88 -72 -126 -96 -328
-113 -970 -14 -520 -37 -717 -96 -836 -35 -70 -57 -83 -33 -20 49 130 65 364
79 1136 12 700 27 943 70 1176 35 185 78 290 141 343 31 26 76 39 51 14z
m1598 -283 l0 -95 -555 0 -555 0 0 95 0 95 555 0 555 0 0 -95z m370 -240 l0
-95 -105 0 -105 0 0 95 0 95 105 0 105 0 0 -95z m-876 43 c22 -31 20 -64 -4
-88 -58 -58 -142 20 -94 88 10 15 25 22 49 22 24 0 39 -7 49 -22z m244 -280
l3 -98 -296 0 -295 0 0 100 0 100 293 -2 292 -3 3 -97z m-1020 -5 l3 -93 -111
0 -110 0 0 95 0 96 108 -3 107 -3 3 -92z m-308 -11 c0 -4 -6 -14 -12 -21 -11
-11 -8 -12 12 -6 14 4 37 14 53 22 l27 14 0 -51 0 -50 120 0 120 0 0 50 0 50
165 0 c91 0 165 -4 165 -8 0 -4 -5 -13 -12 -20 -18 -18 -2 -15 42 8 22 11 42
20 45 20 3 0 5 -25 5 -55 l0 -55 149 0 150 0 0 -140 c1 -77 -2 -140 -5 -140
-3 0 -14 5 -25 11 -18 9 -18 6 6 -40 l25 -51 -280 0 -280 0 0 -110 0 -110 280
0 280 0 0 -45 0 -45 -280 0 -280 0 0 -110 0 -110 280 0 280 0 0 -22 c-1 -15
-13 -30 -33 -43 -52 -33 -50 -103 4 -130 22 -12 29 -22 27 -38 -3 -21 -7 -22
-150 -25 l-148 -3 0 -49 c0 -28 -2 -50 -5 -50 -3 0 -23 9 -45 20 -22 11 -42
20 -45 20 -3 0 -1 -9 5 -20 11 -20 8 -20 -155 -20 l-165 0 0 50 0 50 -120 0
-120 0 0 -50 c0 -27 -2 -50 -5 -50 -3 0 -28 11 -56 25 l-50 26 17 -25 c15 -25
15 -26 -7 -35 -30 -11 -71 -56 -95 -101 -9 -19 -43 -109 -75 -199 -34 -96 -73
-186 -94 -218 -39 -59 -59 -68 -26 -12 65 111 93 357 106 944 13 593 48 815
140 912 39 40 65 54 65 35z m1590 -577 l0 -95 -197 2 -198 3 -3 48 c-2 36 1
48 10 44 7 -2 13 -16 13 -30 -1 -32 11 -36 20 -7 10 31 -10 58 -39 53 -22 -5
-25 -11 -28 -57 l-3 -51 -160 0 -160 0 -3 48 c-2 36 1 48 10 44 7 -2 13 -16
13 -30 -1 -32 11 -36 20 -7 10 31 -10 58 -39 53 -22 -5 -25 -11 -28 -57 l-3
-51 -167 -3 -168 -2 0 95 0 95 555 0 555 0 0 -95z m0 -305 l0 -100 -555 0
-555 0 0 100 0 100 555 0 555 0 0 -100z m370 -235 l0 -95 -105 0 -105 0 0 95
0 95 105 0 105 0 0 -95z m-886 44 c48 -38 24 -109 -37 -109 -38 0 -67 25 -67
59 0 31 8 44 35 59 28 16 39 15 69 -9z m-766 -286 l3 -93 -111 0 -110 0 0 95
0 96 108 -3 107 -3 3 -92z m1020 0 l-3 -98 -292 -3 -293 -2 0 100 0 100 295 0
296 0 -3 -97z m-1128 -108 l115 0 5 50 c4 44 8 49 28 48 12 0 86 -1 164 -2
110 -1 139 -4 130 -13 -26 -26 -10 -27 38 -3 l50 25 0 -55 0 -55 151 0 150 0
-3 -42 -3 -43 -277 -3 -278 -2 0 -105 0 -105 278 -2 277 -3 3 -22 c3 -17 -3
-26 -22 -33 -65 -24 -61 -119 7 -143 10 -4 17 -17 17 -32 l0 -25 -150 0 -150
0 0 -55 0 -55 -50 25 c-27 14 -50 21 -50 16 0 -6 5 -13 10 -16 32 -20 -3 -26
-155 -24 l-164 1 -3 52 -3 51 -115 0 -115 0 -3 -47 c-2 -27 -5 -48 -8 -48 -3
0 -22 9 -44 20 -44 23 -60 26 -42 8 18 -18 14 -28 -11 -28 -49 0 -117 29 -206
89 -51 33 -102 61 -112 61 -27 0 -24 5 22 47 52 47 85 113 149 299 65 187 112
264 161 264 8 0 5 -7 -6 -20 -23 -26 -11 -25 45 5 l45 23 5 -51 5 -52 115 0z
m1390 -200 l0 -95 -555 0 -555 0 0 95 0 95 555 0 555 0 0 -95z m370 -235 l0
-100 -105 0 -105 0 0 93 c0 52 3 97 7 100 3 4 51 7 105 7 l98 0 0 -100z m-876
38 c9 -12 16 -32 16 -44 0 -23 -42 -64 -65 -64 -25 0 -65 41 -65 67 0 59 81
88 114 41z m244 -280 l3 -98 -296 0 -295 0 0 100 0 100 293 -2 292 -3 3 -97z
m-1020 0 l-3 -93 -107 -3 -108 -3 0 96 0 95 110 0 111 0 -3 -92z"/>
<path d="M2157 4142 c-31 -34 -16 -92 23 -92 12 1 12 2 -2 11 -21 12 -24 69
-6 87 7 7 10 12 7 12 -3 0 -13 -8 -22 -18z"/>
<path d="M2206 4153 c5 -5 12 -12 16 -18 4 -6 8 -2 8 8 0 9 -7 17 -17 17 -9 0
-12 -3 -7 -7z"/>
<path d="M2611 4155 c-2 -5 -2 -22 -1 -37 1 -22 -3 -27 -27 -31 l-28 -4 27 -2
c16 0 28 -8 31 -18 4 -17 5 -17 6 0 0 9 7 17 14 17 9 0 9 2 0 8 -6 4 -13 23
-16 42 -2 19 -5 31 -6 25z"/>
<path d="M2791 4155 c-2 -5 -2 -22 -1 -37 1 -22 -3 -27 -27 -31 l-28 -4 28 -2
c18 -1 27 -6 27 -18 0 -15 2 -14 14 3 8 10 11 21 6 24 -5 3 -10 21 -13 40 -2
19 -5 31 -6 25z"/>
<path d="M2945 4140 c-5 -14 0 -26 16 -39 25 -20 19 -40 -14 -42 -18 -1 -18
-2 -4 -6 22 -6 47 14 47 37 0 10 -10 25 -22 33 -19 13 -20 16 -6 16 24 1 33
21 9 21 -11 0 -22 -9 -26 -20z"/>
<path d="M3035 4105 c0 -30 3 -55 8 -55 4 0 7 25 7 55 0 30 -3 55 -7 55 -5 0
-8 -25 -8 -55z"/>
<path d="M3114 4147 c13 -10 17 -21 13 -38 -6 -23 -6 -23 9 -4 20 27 14 49
-16 53 -24 3 -24 3 -6 -11z"/>
<path d="M2488 4134 c-12 -11 -9 -72 3 -79 14 -10 15 -6 9 43 -3 24 -8 40 -12
36z"/>
<path d="M2705 4130 c-4 -7 -16 -9 -27 -7 -15 4 -17 3 -8 -8 8 -9 8 -15 0 -20
-5 -3 -10 -11 -10 -17 0 -7 6 -6 15 2 12 10 18 10 33 -1 15 -13 16 -12 3 4
-11 14 -11 20 -1 32 7 9 10 18 7 21 -3 3 -8 0 -12 -6z"/>
<path d="M2885 4130 c-4 -7 -16 -9 -27 -7 -15 4 -17 3 -8 -8 8 -9 8 -15 0 -20
-5 -3 -10 -11 -10 -17 0 -7 6 -6 15 2 12 10 18 10 33 -1 15 -13 16 -12 3 4
-11 14 -11 20 -1 32 7 9 10 18 7 21 -3 3 -8 0 -12 -6z"/>
<path d="M2254 4106 c-8 -22 -1 -49 14 -54 11 -3 12 0 2 18 -6 12 -9 28 -6 36
3 8 3 14 0 14 -2 0 -7 -6 -10 -14z"/>
<path d="M2295 4085 c0 -19 1 -35 2 -35 9 0 22 42 17 54 -10 27 -19 18 -19
-19z"/>
<path d="M2340 4085 c0 -19 5 -35 10 -35 6 0 10 16 10 35 0 19 -4 35 -10 35
-5 0 -10 -16 -10 -35z"/>
<path d="M2385 4085 c0 -19 5 -35 10 -35 7 0 9 15 7 35 -2 19 -7 35 -11 35 -3
0 -6 -16 -6 -35z"/>
<path d="M2420 4104 c0 -8 7 -17 15 -20 8 -4 15 -13 15 -22 0 -12 3 -13 12 -4
9 9 5 17 -15 36 -19 18 -27 21 -27 10z"/>
<path d="M2420 4060 c0 -5 5 -10 11 -10 5 0 7 5 4 10 -3 6 -8 10 -11 10 -2 0
-4 -4 -4 -10z"/>
<path d="M3094 4059 c-3 -5 9 -9 25 -9 17 0 31 2 31 4 0 8 -51 13 -56 5z"/>
<path d="M3435 3865 l0 -55 38 0 c41 0 58 20 38 44 -8 10 -9 16 -1 21 21 13
-9 45 -43 45 l-32 0 0 -55z m60 25 c0 -8 -10 -16 -22 -18 -22 -3 -32 16 -16
32 12 11 38 2 38 -14z m3 -53 c3 -12 -3 -17 -22 -17 -25 0 -35 18 -19 34 12
12 38 2 41 -17z"/>
<path d="M2651 3898 c0 -9 -9 -19 -18 -21 -16 -4 -16 -5 -1 -6 9 0 19 -11 21
-23 4 -23 4 -23 6 -1 0 12 9 24 19 26 15 4 15 5 0 6 -9 0 -19 9 -21 19 -4 15
-5 15 -6 0z"/>
<path d="M1792 3620 c-12 -27 -17 -50 -13 -50 4 0 14 19 21 43 l13 42 13 -30
c7 -16 13 -36 14 -42 0 -7 6 -13 14 -13 11 0 10 10 -7 50 -11 28 -24 50 -28
50 -3 0 -16 -22 -27 -50z"/>
<path d="M2597 3630 c3 -38 1 -50 -10 -50 -18 0 -28 24 -20 48 5 13 3 14 -6 6
-7 -7 -11 -22 -9 -35 2 -18 10 -25 33 -27 l30 -3 -3 56 c-2 30 -7 55 -11 55
-4 0 -6 -22 -4 -50z"/>
<path d="M2715 3625 c0 -37 4 -55 13 -55 8 0 12 18 12 55 0 37 -4 55 -12 55
-9 0 -13 -18 -13 -55z"/>
<path d="M2775 3625 c0 -30 3 -55 8 -55 4 0 7 17 7 38 l1 37 33 -38 34 -38 4
55 c1 31 0 56 -4 56 -5 0 -8 -17 -8 -37 l-1 -38 -30 38 c-17 20 -34 37 -37 37
-4 0 -7 -25 -7 -55z"/>
<path d="M2452 3620 c-12 -27 -17 -50 -13 -50 4 0 14 19 21 43 l13 42 13 -30
c7 -16 13 -36 14 -42 0 -7 7 -13 14 -13 12 0 11 9 -6 50 -11 28 -24 50 -28 50
-4 0 -17 -22 -28 -50z"/>
<path d="M2674 3613 c1 -14 -5 -28 -13 -31 -10 -3 -12 0 -8 12 4 10 3 15 -3
11 -21 -13 -10 -34 18 -33 25 1 27 4 24 34 -5 40 -20 46 -18 7z"/>
<path d="M2225 2975 c0 -30 3 -55 8 -55 4 0 7 25 7 55 0 30 -3 55 -7 55 -5 0
-8 -25 -8 -55z"/>
<path d="M2098 3004 c-12 -11 -9 -72 3 -79 14 -10 15 -6 9 43 -3 24 -8 40 -12
36z"/>
<path d="M2020 2974 c0 -8 7 -17 15 -20 8 -4 15 -13 15 -22 0 -12 3 -13 12 -4
9 9 5 17 -15 36 -19 18 -27 21 -27 10z"/>
<path d="M2130 2985 c0 -4 7 -20 16 -37 15 -29 15 -32 0 -43 -9 -7 -16 -16
-16 -20 0 -17 32 21 46 53 18 43 18 68 0 27 l-13 -30 -8 28 c-6 23 -25 39 -25
22z"/>
<path d="M2300 2980 c0 -5 5 -10 11 -10 5 0 7 5 4 10 -3 6 -8 10 -11 10 -2 0
-4 -4 -4 -10z"/>
<path d="M2263 2955 c2 -24 7 -30 27 -32 22 -2 22 -2 5 6 -11 4 -23 19 -27 32
-6 21 -7 21 -5 -6z"/>
<path d="M2020 2930 c0 -5 5 -10 11 -10 5 0 7 5 4 10 -3 6 -8 10 -11 10 -2 0
-4 -4 -4 -10z"/>
<path d="M2347 3352 c-31 -34 -16 -92 23 -92 12 1 12 2 -2 11 -21 12 -24 69
-6 87 7 7 10 12 7 12 -3 0 -13 -8 -22 -18z"/>
<path d="M2390 3366 c0 -2 7 -6 15 -10 8 -3 15 -1 15 4 0 6 -7 10 -15 10 -8 0
-15 -2 -15 -4z"/>
<path d="M2756 3356 c15 -11 16 -17 7 -27 -9 -9 -8 -15 3 -26 12 -12 12 -18 2
-32 -11 -14 -10 -14 6 1 13 11 16 22 11 35 -4 10 -7 28 -6 41 2 17 -3 22 -20
22 -22 0 -22 0 -3 -14z"/>
<path d="M2936 3356 c15 -11 16 -17 7 -27 -9 -9 -8 -15 3 -26 12 -12 12 -18 2
-32 -11 -14 -10 -14 6 1 13 11 16 22 11 35 -4 10 -7 28 -6 41 2 17 -3 22 -20
22 -22 0 -22 0 -3 -14z"/>
<path d="M2875 3340 c-4 -7 -16 -9 -27 -7 -15 4 -17 3 -8 -8 8 -9 8 -15 0 -20
-5 -3 -10 -11 -10 -17 0 -7 6 -6 15 2 12 10 18 10 33 -1 15 -13 16 -12 3 4
-11 14 -11 20 -1 32 7 9 10 18 7 21 -3 3 -8 0 -12 -6z"/>
<path d="M2444 3316 c-9 -22 -1 -49 16 -54 13 -5 13 -3 1 11 -7 9 -11 26 -8
37 6 23 -1 27 -9 6z"/>
<path d="M2485 3295 c0 -19 1 -35 2 -35 9 0 22 42 17 54 -10 27 -19 18 -19
-19z"/>
<path d="M2530 3295 c0 -19 5 -35 10 -35 6 0 10 16 10 35 0 19 -4 35 -10 35
-5 0 -10 -16 -10 -35z"/>
<path d="M2575 3295 c0 -19 3 -35 8 -35 4 0 7 16 7 35 0 19 -3 35 -7 35 -5 0
-8 -16 -8 -35z"/>
<path d="M2621 3304 c15 -42 21 -47 30 -33 5 8 9 19 9 24 0 6 -4 3 -9 -4 -8
-12 -11 -9 -16 12 -4 15 -11 27 -16 27 -5 0 -4 -12 2 -26z"/>
<path d="M3435 3085 l0 -55 38 0 c41 0 58 20 38 44 -8 10 -9 16 -1 21 15 9 -7
45 -27 45 -14 0 -14 -2 3 -15 18 -14 18 -16 1 -29 -15 -12 -16 -14 -2 -20 25
-9 18 -36 -10 -36 -23 0 -24 3 -21 50 3 33 0 50 -8 50 -7 0 -11 -20 -11 -55z"/>
<path d="M2651 3113 c0 -12 -9 -24 -18 -26 -16 -4 -16 -5 -1 -6 9 0 19 -9 21
-18 4 -16 5 -16 6 -1 0 9 9 19 19 21 15 4 15 5 0 6 -9 0 -19 11 -21 24 -4 22
-4 22 -6 0z"/>
<path d="M2597 2850 c3 -38 1 -50 -10 -50 -18 0 -28 24 -20 48 5 13 3 14 -6 6
-7 -7 -11 -22 -9 -35 2 -18 10 -25 33 -27 l30 -3 -3 56 c-2 30 -7 55 -11 55
-4 0 -6 -22 -4 -50z"/>
<path d="M2715 2845 c0 -37 4 -55 13 -55 8 0 12 18 12 55 0 37 -4 55 -12 55
-9 0 -13 -18 -13 -55z"/>
<path d="M2775 2845 c0 -30 3 -55 8 -55 4 0 7 17 7 38 l1 37 33 -38 34 -38 4
55 c1 31 0 56 -4 56 -5 0 -8 -17 -8 -37 l-1 -38 -30 38 c-17 20 -34 37 -37 37
-4 0 -7 -25 -7 -55z"/>
<path d="M2452 2840 c-12 -27 -17 -50 -13 -50 4 0 14 19 21 43 l13 42 13 -30
c7 -16 13 -36 14 -42 0 -7 7 -13 14 -13 12 0 11 9 -6 50 -11 28 -24 50 -28 50
-4 0 -17 -22 -28 -50z"/>
<path d="M2674 2833 c1 -14 -5 -28 -13 -31 -10 -3 -12 0 -8 12 4 10 3 15 -3
11 -21 -13 -10 -34 18 -33 25 1 27 4 24 34 -5 40 -20 46 -18 7z"/>
<path d="M1782 2840 c-12 -27 -17 -50 -13 -50 4 0 14 19 21 43 l13 42 13 -30
c7 -16 13 -36 14 -42 0 -7 6 -13 14 -13 11 0 10 10 -7 50 -11 28 -24 50 -28
50 -3 0 -16 -22 -27 -50z"/>
<path d="M2225 1595 c0 -30 5 -55 10 -55 6 0 9 23 7 55 -5 71 -17 71 -17 0z"/>
<path d="M2098 1624 c-12 -11 -9 -72 3 -79 14 -10 15 -6 9 43 -3 24 -8 40 -12
36z"/>
<path d="M2020 1594 c0 -8 7 -17 15 -20 8 -4 15 -13 15 -22 0 -12 3 -13 12 -4
9 9 5 17 -15 36 -19 18 -27 21 -27 10z"/>
<path d="M2145 1573 c14 -34 14 -39 0 -49 -8 -6 -15 -15 -15 -19 0 -4 7 -2 16
5 16 14 44 75 43 94 0 6 -4 1 -10 -12 -9 -24 -29 -22 -29 4 0 8 -5 14 -10 14
-6 0 -4 -16 5 -37z"/>
<path d="M2300 1600 c0 -5 5 -10 11 -10 5 0 7 5 4 10 -3 6 -8 10 -11 10 -2 0
-4 -4 -4 -10z"/>
<path d="M2263 1575 c2 -24 7 -30 27 -32 22 -2 22 -2 5 6 -11 4 -23 19 -27 32
-6 21 -7 21 -5 -6z"/>
<path d="M2020 1550 c0 -5 5 -10 11 -10 5 0 7 5 4 10 -3 6 -8 10 -11 10 -2 0
-4 -4 -4 -10z"/>
<path d="M2327 2268 c7 -66 10 -70 45 -66 32 3 33 5 38 56 3 28 2 52 -2 52 -5
0 -8 -22 -8 -50 0 -47 -2 -50 -25 -50 -28 0 -42 33 -31 75 5 18 2 25 -8 25
-11 0 -13 -10 -9 -42z"/>
<path d="M2885 2255 c0 -30 5 -55 10 -55 6 0 9 23 7 55 -5 71 -17 71 -17 0z"/>
<path d="M2617 2268 c14 -19 10 -51 -6 -56 -10 -3 -12 0 -8 12 4 10 3 15 -3
11 -21 -13 -10 -34 18 -33 25 1 27 4 24 34 -2 18 -11 35 -19 39 -12 4 -13 2
-6 -7z"/>
<path d="M2715 2239 c0 -21 5 -39 10 -39 7 0 9 15 7 35 -6 49 -18 52 -17 4z"/>
<path d="M2745 2270 c-3 -5 -1 -10 4 -10 6 0 11 -13 11 -30 0 -16 5 -30 10
-30 15 0 12 56 -4 69 -10 8 -16 9 -21 1z"/>
<path d="M2957 2261 c3 -12 9 -21 14 -21 14 0 11 16 -5 29 -12 10 -13 8 -9 -8z"/>
<path d="M2530 2255 c0 -9 7 -18 15 -21 8 -4 15 -13 15 -22 0 -13 3 -13 12 -4
10 10 7 18 -15 38 -21 19 -27 21 -27 9z"/>
<path d="M2670 2235 c0 -19 4 -35 9 -35 5 0 11 16 13 35 3 24 0 35 -9 35 -8 0
-13 -13 -13 -35z"/>
<path d="M2924 2256 c-11 -28 1 -51 26 -53 l25 -3 -24 10 c-18 8 -22 16 -19
35 6 27 1 33 -8 11z"/>
<path d="M2530 2210 c0 -5 5 -10 11 -10 5 0 7 5 4 10 -3 6 -8 10 -11 10 -2 0
-4 -4 -4 -10z"/>
<path d="M2347 1982 c-31 -34 -16 -92 23 -92 12 1 12 2 -2 11 -21 12 -24 69
-6 87 7 7 10 12 7 12 -3 0 -13 -8 -22 -18z"/>
<path d="M2390 1996 c0 -2 7 -6 15 -10 8 -3 15 -1 15 4 0 6 -7 10 -15 10 -8 0
-15 -2 -15 -4z"/>
<path d="M2756 1986 c15 -11 16 -17 7 -27 -9 -9 -8 -15 3 -26 12 -12 12 -18 2
-32 -11 -14 -10 -14 6 1 13 11 16 22 11 35 -4 10 -7 28 -6 41 2 17 -3 22 -20
22 -22 0 -22 0 -3 -14z"/>
<path d="M2936 1986 c15 -11 16 -17 7 -27 -9 -9 -8 -15 3 -26 12 -12 12 -18 2
-32 -11 -14 -10 -14 6 1 13 11 16 22 11 35 -4 10 -7 28 -6 41 2 17 -3 22 -20
22 -22 0 -22 0 -3 -14z"/>
<path d="M2875 1970 c-4 -7 -16 -9 -27 -7 -15 4 -17 3 -8 -8 8 -9 8 -15 0 -20
-5 -3 -10 -11 -10 -17 0 -7 6 -6 15 2 12 10 18 10 33 -1 15 -13 16 -12 3 4
-11 14 -11 20 -1 32 7 9 10 18 7 21 -3 3 -8 0 -12 -6z"/>
<path d="M2444 1946 c-9 -22 -1 -49 16 -54 13 -5 13 -3 1 11 -7 9 -11 26 -8
37 6 23 -1 27 -9 6z"/>
<path d="M2485 1925 c0 -29 2 -32 14 -21 8 8 10 22 6 35 -10 32 -20 25 -20
-14z"/>
<path d="M2530 1925 c0 -19 5 -35 10 -35 6 0 10 16 10 35 0 19 -4 35 -10 35
-5 0 -10 -16 -10 -35z"/>
<path d="M2575 1925 c0 -19 5 -35 10 -35 7 0 9 15 7 35 -2 19 -7 35 -11 35 -3
0 -6 -16 -6 -35z"/>
<path d="M2622 1930 c12 -36 24 -45 32 -24 3 8 2 12 -4 9 -5 -3 -12 6 -16 20
-3 14 -10 25 -15 25 -4 0 -3 -14 3 -30z"/>
<path d="M3435 1705 l0 -55 38 0 c41 0 58 20 38 44 -8 10 -9 16 -1 21 21 13
-9 45 -43 45 l-32 0 0 -55z m61 33 c4 -6 -1 -17 -10 -23 -14 -11 -15 -13 -1
-19 25 -9 18 -36 -9 -36 -22 0 -24 3 -21 43 1 23 3 43 4 45 4 7 31 0 37 -10z"/>
<path d="M2651 1738 c0 -9 -9 -19 -18 -21 -16 -4 -16 -5 -1 -6 9 0 19 -11 21
-23 4 -23 4 -23 6 -1 0 12 9 24 19 26 15 4 15 5 0 6 -9 0 -19 9 -21 19 -4 15
-5 15 -6 0z"/>
<path d="M1782 1460 c-12 -27 -17 -50 -13 -50 4 0 14 19 21 43 l13 42 13 -30
c7 -16 13 -36 14 -42 0 -7 6 -13 14 -13 11 0 10 10 -7 50 -11 28 -24 50 -28
50 -3 0 -16 -22 -27 -50z"/>
<path d="M2597 1470 c3 -38 1 -50 -10 -50 -18 0 -28 24 -20 48 5 13 3 14 -6 6
-7 -7 -11 -22 -9 -35 2 -18 10 -25 33 -27 l30 -3 -3 56 c-2 30 -7 55 -11 55
-4 0 -6 -22 -4 -50z"/>
<path d="M2715 1465 c0 -37 4 -55 13 -55 8 0 12 18 12 55 0 37 -4 55 -12 55
-9 0 -13 -18 -13 -55z"/>
<path d="M2775 1465 c0 -30 3 -55 8 -55 4 0 7 17 7 38 l1 37 33 -38 34 -38 4
55 c1 31 0 56 -4 56 -5 0 -8 -17 -8 -37 l-1 -38 -30 38 c-17 20 -34 37 -37 37
-4 0 -7 -25 -7 -55z"/>
<path d="M2452 1460 c-12 -27 -17 -50 -13 -50 4 0 14 19 21 43 l13 42 13 -30
c7 -16 13 -36 14 -42 0 -7 7 -13 14 -13 12 0 11 9 -6 50 -11 28 -24 50 -28 50
-4 0 -17 -22 -28 -50z"/>
<path d="M2667 1478 c14 -19 10 -51 -6 -56 -10 -3 -12 0 -8 12 4 10 3 15 -3
11 -21 -13 -10 -34 18 -33 25 1 27 4 24 34 -2 18 -11 35 -19 39 -12 4 -13 2
-6 -7z"/>
<path d="M2225 815 c0 -30 5 -55 10 -55 6 0 9 23 7 55 -5 71 -17 71 -17 0z"/>
<path d="M2098 844 c-12 -11 -9 -72 3 -79 14 -10 15 -6 9 43 -3 24 -8 40 -12
36z"/>
<path d="M2296 825 c4 -8 11 -15 16 -15 6 0 5 6 -2 15 -7 8 -14 15 -16 15 -2
0 -1 -7 2 -15z"/>
<path d="M2020 814 c0 -8 7 -17 15 -20 8 -4 15 -13 15 -22 0 -12 3 -13 12 -4
9 9 5 17 -15 36 -19 18 -27 21 -27 10z"/>
<path d="M2145 793 c14 -34 14 -39 0 -49 -8 -6 -15 -15 -15 -19 0 -17 32 21
46 53 18 43 18 68 0 27 l-13 -30 -8 28 c-4 15 -11 27 -16 27 -5 0 -2 -17 6
-37z"/>
<path d="M2263 795 c2 -24 7 -30 27 -32 22 -2 22 -2 5 6 -11 4 -23 19 -27 32
-6 21 -7 21 -5 -6z"/>
<path d="M2020 770 c0 -5 5 -10 11 -10 5 0 7 5 4 10 -3 6 -8 10 -11 10 -2 0
-4 -4 -4 -10z"/>
<path d="M2347 1192 c-31 -34 -16 -92 23 -92 12 1 12 2 -2 11 -21 12 -24 69
-6 87 7 7 10 12 7 12 -3 0 -13 -8 -22 -18z"/>
<path d="M2390 1206 c0 -2 7 -6 15 -10 8 -3 15 -1 15 4 0 6 -7 10 -15 10 -8 0
-15 -2 -15 -4z"/>
<path d="M2756 1196 c15 -11 16 -17 7 -27 -9 -9 -8 -15 3 -26 12 -12 12 -18 2
-32 -11 -14 -10 -14 6 1 13 11 16 22 11 35 -4 10 -7 28 -6 41 2 17 -3 22 -20
22 -22 0 -22 0 -3 -14z"/>
<path d="M2936 1196 c15 -11 16 -17 7 -27 -9 -9 -8 -15 3 -26 12 -12 12 -18 2
-32 -11 -14 -10 -14 6 1 13 11 16 22 11 35 -4 10 -7 28 -6 41 2 17 -3 22 -20
22 -22 0 -22 0 -3 -14z"/>
<path d="M2875 1180 c-4 -7 -16 -9 -27 -7 -15 4 -17 3 -8 -8 8 -9 8 -15 0 -20
-5 -3 -10 -11 -10 -17 0 -7 6 -6 15 2 12 10 18 10 33 -1 15 -13 16 -12 3 4
-11 14 -11 20 -1 32 7 9 10 18 7 21 -3 3 -8 0 -12 -6z"/>
<path d="M2444 1156 c-9 -22 -1 -49 16 -54 13 -5 13 -3 1 11 -7 9 -11 26 -8
37 6 23 -1 27 -9 6z"/>
<path d="M2485 1135 c0 -19 1 -35 2 -35 9 0 22 42 17 54 -10 27 -19 18 -19
-19z"/>
<path d="M2530 1135 c0 -19 5 -35 10 -35 6 0 10 16 10 35 0 19 -4 35 -10 35
-5 0 -10 -16 -10 -35z"/>
<path d="M2575 1135 c0 -19 5 -35 10 -35 7 0 9 15 7 35 -2 19 -7 35 -11 35 -3
0 -6 -16 -6 -35z"/>
<path d="M2621 1144 c15 -42 21 -47 30 -33 5 8 9 19 9 24 0 6 -4 3 -9 -4 -8
-12 -11 -9 -16 12 -4 15 -11 27 -16 27 -5 0 -4 -12 2 -26z"/>
<path d="M3435 925 l0 -55 38 0 c41 0 58 20 38 44 -8 10 -9 16 -1 21 15 9 -7
45 -27 45 -14 0 -14 -2 3 -15 18 -14 18 -16 1 -29 -15 -12 -16 -14 -2 -20 25
-9 18 -36 -10 -36 -23 0 -24 3 -21 50 3 33 0 50 -8 50 -7 0 -11 -20 -11 -55z"/>
<path d="M2651 953 c0 -13 -7 -23 -13 -23 -9 0 -10 -3 -2 -8 6 -4 14 -14 17
-22 4 -12 6 -12 6 2 1 9 9 19 19 21 15 4 15 5 0 6 -9 0 -19 11 -21 24 l-4 22
-2 -22z"/>
<path d="M2597 690 c3 -38 1 -50 -10 -50 -18 0 -28 24 -20 48 5 13 3 14 -6 6
-7 -7 -11 -22 -9 -35 2 -18 10 -25 33 -27 l30 -3 -3 56 c-2 30 -7 55 -11 55
-4 0 -6 -22 -4 -50z"/>
<path d="M2715 685 c0 -37 4 -55 13 -55 8 0 12 18 12 55 0 37 -4 55 -12 55 -9
0 -13 -18 -13 -55z"/>
<path d="M2775 685 c0 -30 3 -55 8 -55 4 0 7 17 7 38 l1 37 33 -38 34 -38 4
55 c1 31 0 56 -4 56 -5 0 -8 -17 -8 -37 l-1 -38 -30 38 c-17 20 -34 37 -37 37
-4 0 -7 -25 -7 -55z"/>
<path d="M2452 680 c-12 -27 -17 -50 -13 -50 4 0 14 19 21 43 l13 42 13 -30
c7 -16 13 -36 14 -42 0 -7 7 -13 14 -13 12 0 11 9 -6 50 -11 28 -24 50 -28 50
-4 0 -17 -22 -28 -50z"/>
<path d="M2674 673 c1 -14 -5 -28 -13 -31 -10 -3 -12 0 -8 12 4 10 3 15 -3 11
-21 -13 -10 -34 18 -33 25 1 27 4 24 34 -5 40 -20 46 -18 7z"/>
<path d="M1782 680 c-12 -27 -17 -50 -13 -50 4 0 14 19 21 43 l13 42 13 -30
c7 -16 13 -36 14 -42 0 -7 6 -13 14 -13 11 0 10 10 -7 50 -11 28 -24 50 -28
50 -3 0 -16 -22 -27 -50z"/>
<path d="M1880 4396 c0 -10 8 -16 22 -16 12 0 19 1 17 3 -2 1 -12 9 -21 16
-15 12 -18 11 -18 -3z"/>
<path d="M2410 4390 c0 -5 5 -10 11 -10 5 0 7 5 4 10 -3 6 -8 10 -11 10 -2 0
-4 -4 -4 -10z"/>
<path d="M2540 4390 c0 -5 5 -10 11 -10 5 0 7 5 4 10 -3 6 -8 10 -11 10 -2 0
-4 -4 -4 -10z"/>
<path d="M718 3910 c-2 -36 1 -60 7 -60 6 0 9 21 8 48 l-3 47 24 -49 24 -49
26 49 26 49 -2 -47 c-2 -33 1 -48 9 -48 9 0 13 18 13 60 0 33 -4 60 -10 60 -5
0 -20 -20 -33 -45 l-23 -46 -22 46 c-12 25 -26 45 -31 45 -5 0 -11 -27 -13
-60z"/>
<path d="M919 3897 c4 -22 11 -42 16 -44 15 -5 6 75 -9 80 -9 4 -11 -6 -7 -36z"/>
<path d="M1005 3931 c-3 -5 2 -12 11 -15 12 -4 15 -15 12 -37 -4 -26 -3 -28
10 -15 9 9 12 23 8 39 -6 26 -31 43 -41 28z"/>
<path d="M1095 3931 c-3 -5 2 -12 11 -15 12 -4 15 -15 12 -37 -4 -26 -3 -28
10 -15 9 9 12 23 8 39 -6 26 -31 43 -41 28z"/>
<path d="M1220 3940 c-8 -22 -4 -90 5 -90 7 0 10 15 7 38 -4 38 -9 61 -12 52z"/>
<path d="M885 3920 c-3 -5 -1 -10 4 -10 6 0 11 5 11 10 0 6 -2 10 -4 10 -3 0
-8 -4 -11 -10z"/>
<path d="M970 3870 c0 -33 4 -60 9 -60 12 0 17 34 12 83 -5 59 -21 43 -21 -23z"/>
<path d="M1060 3870 c0 -33 4 -60 9 -60 12 0 17 34 12 83 -5 59 -21 43 -21
-23z"/>
<path d="M1168 3890 c2 -22 8 -40 13 -40 5 0 9 18 9 40 0 26 -5 40 -13 40 -9
0 -11 -12 -9 -40z"/>
<path d="M1255 3917 c12 -10 16 -22 13 -40 -3 -17 -1 -27 6 -27 7 0 10 15 8
40 -3 33 -8 40 -25 40 -20 0 -20 -1 -2 -13z"/>
<path d="M1308 3919 c-2 -7 -2 -25 0 -41 4 -23 9 -28 32 -28 16 0 31 -5 33
-10 3 -6 4 -5 3 2 -1 7 -14 14 -28 16 -20 2 -25 9 -26 34 -1 33 -8 46 -14 27z"/>
<path d="M1350 3904 c0 -28 15 -25 23 6 3 13 0 20 -9 20 -8 0 -14 -10 -14 -26z"/>
<path d="M892 3888 c-17 -17 -15 -38 4 -38 13 0 14 3 5 13 -8 10 -7 17 1 25 7
7 10 12 7 12 -3 0 -10 -5 -17 -12z"/>
<path d="M1302 3830 c2 -8 18 -16 34 -17 18 -1 22 0 9 4 -11 3 -26 10 -34 17
-11 9 -13 8 -9 -4z"/>
<path d="M2225 3755 c0 -30 5 -55 10 -55 6 0 9 23 7 55 -5 71 -17 71 -17 0z"/>
<path d="M2098 3784 c-12 -11 -9 -72 3 -79 14 -10 15 -6 9 43 -3 24 -8 40 -12
36z"/>
<path d="M1245 3705 c0 -42 4 -65 12 -65 6 0 9 9 6 23 l-5 22 20 -22 c11 -13
26 -23 34 -23 8 0 9 3 3 8 -5 4 -16 15 -24 25 -11 14 -11 20 0 35 11 14 10 13
-9 -2 l-22 -19 0 41 c0 23 -3 42 -7 42 -5 0 -8 -29 -8 -65z"/>
<path d="M1445 3753 c-4 -10 -9 -31 -12 -48 -2 -16 -8 -45 -13 -64 -7 -24 -6
-31 1 -24 6 6 15 30 21 54 18 82 20 124 3 82z"/>
<path d="M2020 3754 c0 -8 7 -17 15 -20 8 -4 15 -13 15 -22 0 -12 3 -13 12 -4
9 9 5 17 -15 36 -19 18 -27 21 -27 10z"/>
<path d="M2130 3765 c0 -4 7 -20 16 -37 15 -29 15 -32 0 -43 -9 -7 -16 -16
-16 -20 0 -4 7 -2 16 5 16 14 44 75 43 94 0 6 -4 1 -10 -12 -9 -24 -29 -22
-29 4 0 8 -4 14 -10 14 -5 0 -10 -2 -10 -5z"/>
<path d="M2300 3760 c0 -5 5 -10 11 -10 5 0 7 5 4 10 -3 6 -8 10 -11 10 -2 0
-4 -4 -4 -10z"/>
<path d="M2263 3735 c2 -24 7 -30 27 -32 22 -2 22 -2 5 6 -11 4 -23 19 -27 32
-6 21 -7 21 -5 -6z"/>
<path d="M899 3735 c-8 -13 1 -95 10 -95 4 0 5 17 3 38 -5 60 -7 68 -13 57z"/>
<path d="M720 3725 c-7 -34 -3 -85 5 -85 7 0 9 16 7 38 -4 42 -9 63 -12 47z"/>
<path d="M852 3711 c13 -22 28 -28 28 -11 0 5 -9 14 -20 20 -19 10 -20 10 -8
-9z"/>
<path d="M1190 3725 c-7 -34 -3 -85 5 -85 7 0 9 16 7 38 -4 42 -9 63 -12 47z"/>
<path d="M755 3707 c12 -10 16 -22 13 -40 -3 -17 -1 -27 6 -27 7 0 10 15 8 40
-3 33 -8 40 -25 40 -20 0 -20 -1 -2 -13z"/>
<path d="M814 3706 c-17 -44 21 -86 50 -55 8 9 8 10 -2 5 -20 -12 -43 13 -38
40 5 26 -1 32 -10 10z"/>
<path d="M962 3688 c14 -43 24 -53 31 -34 4 9 3 16 -2 16 -5 0 -12 11 -15 25
-4 14 -11 25 -16 25 -5 0 -4 -14 2 -32z"/>
<path d="M1000 3700 c0 -11 4 -20 9 -20 5 0 11 -10 15 -22 5 -19 8 -21 16 -8
13 19 13 33 0 25 -5 -3 -12 6 -16 20 -7 30 -24 33 -24 5z"/>
<path d="M1084 3706 c-9 -23 0 -59 15 -64 9 -3 11 0 6 8 -4 7 -8 26 -7 41 1
31 -5 38 -14 15z"/>
<path d="M1135 3679 c0 -34 2 -37 13 -22 15 22 15 38 -1 51 -10 9 -13 3 -12
-29z"/>
<path d="M2020 3710 c0 -5 5 -10 11 -10 5 0 7 5 4 10 -3 6 -8 10 -11 10 -2 0
-4 -4 -4 -10z"/>
<path d="M3061 2785 c-2 -5 -2 -22 -1 -37 1 -22 -3 -27 -27 -31 l-28 -4 28 -2
c18 -1 27 -6 27 -18 0 -15 2 -14 14 3 8 10 11 21 6 24 -5 3 -10 21 -13 40 -2
19 -5 31 -6 25z"/>
<path d="M3241 2785 c-2 -5 -2 -22 -1 -37 1 -22 -3 -27 -27 -31 l-28 -4 27 -2
c16 0 28 -8 31 -18 4 -17 5 -17 6 0 0 9 7 17 14 17 9 0 9 2 0 8 -6 4 -13 23
-16 42 -2 19 -5 31 -6 25z"/>
<path d="M3165 2760 c-4 -7 -16 -9 -27 -7 -15 4 -17 3 -8 -8 8 -9 8 -15 0 -20
-5 -3 -10 -11 -10 -17 0 -7 6 -6 15 2 12 10 18 10 33 -1 15 -13 16 -12 3 4
-11 14 -11 20 -1 32 7 9 10 18 7 21 -3 3 -8 0 -12 -6z"/>
<path d="M3247 600 c4 -14 0 -20 -11 -20 -9 0 -16 7 -16 15 0 8 -4 15 -10 15
-18 0 -10 -26 15 -50 14 -13 23 -30 20 -38 -2 -7 -1 -11 4 -7 11 6 11 94 0
100 -4 3 -5 -4 -2 -15z"/>
<path d="M3020 597 c0 -8 11 -24 25 -37 14 -13 23 -30 20 -38 -2 -7 -1 -11 4
-7 5 3 9 26 8 53 0 26 -3 39 -5 30 -4 -22 -32 -24 -32 -3 0 8 -4 15 -10 15 -5
0 -10 -6 -10 -13z"/>
<path d="M3165 590 c-4 -7 -16 -9 -27 -7 -15 4 -17 3 -8 -8 8 -9 8 -15 0 -20
-5 -3 -10 -11 -10 -17 0 -7 6 -6 15 2 12 10 18 10 33 -1 15 -13 16 -12 3 4
-11 14 -11 20 -1 32 7 9 10 18 7 21 -3 3 -8 0 -12 -6z"/>
<path d="M3024 545 c-7 -17 3 -35 19 -35 8 0 8 3 0 11 -6 6 -9 18 -6 25 3 8 2
14 -1 14 -4 0 -9 -7 -12 -15z"/>
<path d="M3204 545 c-7 -17 3 -35 19 -35 8 0 8 3 0 11 -6 6 -9 18 -6 25 3 8 2
14 -1 14 -4 0 -9 -7 -12 -15z"/>
<path d="M2547 144 c-9 -10 2 -24 19 -24 8 0 14 7 14 15 0 15 -21 21 -33 9z"/>
<path d="M2637 144 c-9 -10 2 -24 19 -24 8 0 14 7 14 15 0 15 -21 21 -33 9z"/>
<path d="M2730 135 c0 -8 7 -15 15 -15 8 0 15 7 15 15 0 8 -7 15 -15 15 -8 0
-15 -7 -15 -15z"/>
</g>
</svg>
