<?xml version="1.0" standalone="no"?>
<!DOCTYPE svg PUBLIC "-//W3C//DTD SVG 20010904//EN"
 "http://www.w3.org/TR/2001/REC-SVG-20010904/DTD/svg10.dtd">
<svg version="1.0" xmlns="http://www.w3.org/2000/svg"
 width="418.000000pt" height="489.000000pt" viewBox="0 0 418.000000 489.000000"
 preserveAspectRatio="xMidYMid meet">
<metadata>
Created by potrace 1.16, written by Peter Selinger 2001-2019
</metadata>
<g transform="translate(0.000000,489.000000) scale(0.100000,-0.100000)"
fill="#000000" stroke="none">
<path d="M672 4386 l-2 -68 -25 16 -26 17 26 -50 c14 -28 25 -53 25 -56 0 -3
-97 -5 -215 -5 l-215 0 0 -110 0 -110 215 0 215 0 0 -260 c0 -239 -4 -283 -25
-250 -3 6 -10 10 -16 10 -5 0 2 -22 16 -50 l25 -50 -215 0 -216 0 3 -107 3
-108 213 -3 c179 -2 212 -5 212 -17 0 -13 -32 -15 -215 -15 l-216 0 3 -107 3
-108 200 -2 c110 -1 206 -2 213 -2 6 -1 12 -8 12 -16 0 -13 -31 -15 -215 -15
l-216 0 3 -107 3 -108 213 -3 c179 -2 212 -5 212 -17 0 -13 -32 -15 -215 -15
l-216 0 3 -107 3 -108 213 -3 c179 -2 212 -5 212 -17 0 -13 -32 -15 -215 -15
l-216 0 3 -107 3 -108 213 -3 c179 -2 212 -5 212 -17 0 -13 -32 -15 -215 -15
l-216 0 3 -107 3 -108 213 -3 c179 -2 212 -5 212 -17 0 -13 -32 -15 -215 -15
l-216 0 3 -107 3 -108 213 -3 c179 -2 212 -5 212 -17 0 -13 -32 -15 -215 -15
l-216 0 3 -107 3 -108 213 -3 212 -2 0 -96 0 -96 -25 16 -26 17 26 -50 c14
-28 25 -52 25 -54 0 -3 -23 -7 -50 -9 -34 -4 -59 -13 -75 -28 -21 -20 -28 -22
-50 -12 -41 19 -103 14 -146 -10 -39 -22 -89 -100 -89 -140 0 -10 -10 -20 -24
-24 -63 -15 -99 -122 -61 -180 15 -24 15 -28 1 -59 -20 -42 -20 -58 1 -102 11
-23 29 -41 52 -50 20 -9 51 -33 69 -54 53 -62 112 -84 180 -68 32 8 39 6 57
-15 35 -40 72 -58 123 -58 58 0 101 20 135 63 23 30 26 31 60 20 70 -23 164
30 183 104 4 16 15 26 35 30 88 20 145 130 116 226 -9 30 -11 53 -5 69 16 45
-1 102 -43 142 -22 21 -39 45 -39 54 0 9 -15 31 -34 50 -28 28 -41 34 -78 34
-24 0 -53 -6 -63 -14 -17 -12 -23 -11 -49 11 -24 20 -37 24 -69 20 -21 -3 -49
-14 -60 -25 -22 -20 -22 -20 -46 -1 l-25 20 28 56 27 56 -25 -17 -26 -16 0 95
0 95 213 2 212 3 3 108 3 107 -216 0 c-183 0 -215 2 -215 15 0 12 33 15 213
17 l212 3 3 108 3 107 -216 0 c-183 0 -215 2 -215 15 0 12 33 15 213 17 l212
3 3 108 3 107 -216 0 c-183 0 -215 2 -215 15 0 12 33 15 213 17 l212 3 3 108
3 107 -216 0 c-183 0 -215 2 -215 15 0 12 33 15 213 17 l212 3 3 108 3 107
-216 0 c-183 0 -215 2 -215 15 0 12 33 15 213 17 l212 3 3 108 3 107 -216 0
c-193 0 -216 2 -213 16 3 14 30 16 213 17 l210 2 3 108 3 107 -216 0 c-183 0
-215 2 -215 15 0 12 33 15 213 17 l212 3 3 107 3 108 -215 2 -216 3 26 54 c21
46 22 52 6 38 -10 -9 -22 -17 -25 -17 -4 0 -7 117 -7 260 l0 260 215 0 215 0
0 110 0 110 -215 0 c-118 0 -215 2 -215 5 0 3 11 28 25 56 l26 50 -25 -16 -25
-17 -4 69 -3 68 -2 -69z m420 -233 c2 -43 2 -88 0 -100 l-3 -23 -420 0 -419 0
0 100 0 100 419 0 419 0 4 -77z m6 -840 l3 -93 -426 0 -425 0 0 95 0 95 423
-2 422 -3 3 -92z m0 -250 l3 -93 -426 0 -425 0 0 95 0 95 423 -2 422 -3 3 -92z
m0 -250 l3 -93 -426 0 -425 0 0 95 0 95 423 -2 422 -3 3 -92z m0 -250 c1 -51
-1 -93 -5 -93 -35 -1 -488 -1 -645 0 l-198 0 0 95 0 95 423 -2 422 -3 3 -92z
m0 -250 l3 -93 -426 0 -425 0 0 95 0 95 423 -2 422 -3 3 -92z m0 -250 c3 -91
2 -93 -20 -93 -74 -1 -509 -1 -655 -1 l-173 1 0 95 0 95 423 -2 422 -3 3 -92z
m0 -250 l3 -93 -426 0 -425 0 0 95 0 95 423 -2 422 -3 3 -92z m0 -250 l3 -93
-426 0 -425 0 0 95 0 95 423 -2 422 -3 3 -92z m-221 -405 c9 -7 12 -21 8 -36
-6 -25 -6 -25 30 6 72 64 161 28 177 -72 2 -11 11 -20 21 -22 23 -3 43 -28 57
-71 13 -37 -1 -103 -25 -123 -8 -7 -15 -17 -15 -23 0 -5 8 -2 19 7 17 15 19
15 25 1 3 -9 6 -38 6 -64 0 -56 -27 -103 -79 -138 -43 -29 -61 -29 -61 0 0 12
-5 29 -10 37 -7 10 -8 1 -4 -31 12 -89 -46 -160 -133 -162 -36 0 -50 5 -64 21
l-17 22 -6 -23 c-8 -34 -69 -88 -110 -97 -22 -5 -52 -4 -74 2 -41 11 -102 67
-103 95 0 15 -2 14 -9 -4 -8 -20 -17 -23 -67 -23 -40 0 -68 6 -90 20 -36 21
-68 64 -59 78 3 5 -12 12 -32 16 -68 10 -105 77 -78 140 13 31 19 35 43 32 15
-2 20 -1 11 1 -10 2 -29 18 -43 34 -34 41 -34 97 0 137 27 32 61 46 69 28 2
-6 5 5 5 25 1 48 40 119 81 147 46 31 115 30 162 -2 34 -23 35 -23 31 -2 -5
26 41 56 87 56 42 0 93 -27 86 -46 -3 -8 -1 -14 4 -14 5 0 11 9 15 19 13 43
103 61 142 29z"/>
<path d="M3720 4167 l0 -287 -25 0 c-23 0 -24 2 -15 20 6 11 8 20 5 20 -3 0
-23 -9 -45 -20 -22 -11 -42 -20 -45 -20 -3 0 -5 23 -5 50 l0 50 -115 0 -115 0
0 -50 0 -50 -275 0 c-273 0 -276 0 -265 20 13 25 9 25 -41 -1 -23 -11 -42 -19
-43 -17 -1 2 -10 15 -19 30 -9 14 -26 29 -37 33 -13 4 -20 15 -20 31 l0 24
280 0 280 0 0 110 0 110 -565 0 -565 0 0 -110 0 -110 280 0 280 0 0 -22 c0
-15 -11 -29 -30 -40 -53 -30 -53 -106 1 -133 22 -12 29 -22 27 -38 -3 -21 -7
-22 -150 -25 l-148 -3 0 -49 c0 -28 -2 -50 -5 -50 -3 0 -23 9 -45 20 -22 11
-42 20 -45 20 -3 0 -1 -9 5 -20 11 -20 8 -20 -154 -20 l-165 0 -3 48 -3 47
-115 0 -115 0 -3 -53 -3 -53 -44 25 c-47 28 -67 34 -47 14 20 -20 13 -32 -28
-50 -91 -38 -158 -216 -194 -518 -26 -217 -36 -421 -46 -950 -11 -594 -17
-782 -31 -935 -19 -204 -56 -331 -100 -342 -30 -8 -22 -23 14 -23 40 0 105
-29 166 -74 69 -50 127 -76 182 -83 54 -6 53 -6 38 -34 -9 -18 -6 -18 40 6
l51 25 0 -55 0 -55 120 0 120 0 0 50 0 50 165 0 c91 0 165 -4 165 -8 0 -4 -5
-13 -12 -20 -18 -18 -2 -15 42 8 22 11 41 20 44 20 3 0 6 -24 8 -52 l3 -53
145 0 145 0 3 -107 c2 -99 -4 -128 -23 -98 -3 6 -10 10 -16 10 -5 0 2 -23 16
-50 14 -28 27 -50 30 -50 7 0 45 77 45 91 0 7 -8 5 -20 -6 l-21 -19 3 115 3
114 145 1 145 0 3 112 3 112 -151 0 -150 0 0 25 c0 18 7 28 24 35 14 5 30 19
37 32 6 13 13 24 14 26 2 2 21 -6 44 -17 50 -26 54 -26 41 -1 -11 20 -8 20
265 20 l275 0 0 -50 0 -50 115 0 115 0 0 50 c0 28 2 50 5 50 3 0 23 -9 45 -20
49 -25 53 -25 40 0 -10 20 -8 20 135 20 l145 0 0 1765 c0 1167 -3 1765 -10
1765 -7 0 -11 -597 -12 -1755 l-3 -1756 -120 0 c-160 0 -151 -1 -137 13 26 26
10 27 -38 3 l-50 -25 0 55 0 56 -112 -3 -113 -3 -3 -45 c-2 -24 -7 -47 -12
-50 -4 -3 -128 -4 -276 -2 -204 2 -265 5 -256 14 26 26 10 27 -37 4 l-49 -25
-6 24 c-4 14 -20 32 -36 40 -21 11 -30 23 -30 40 l0 25 280 0 280 0 0 105 0
105 -280 0 -280 0 0 45 0 45 150 0 150 0 0 110 0 109 -147 3 -148 3 -3 26 c-3
22 2 28 23 33 17 4 31 18 38 36 l11 28 49 -24 c50 -26 70 -27 42 -4 -8 7 -15
17 -15 22 0 5 115 8 275 8 l275 -2 0 -49 0 -49 115 0 115 0 0 50 0 50 51 -26
c51 -25 73 -28 44 -4 -30 25 -14 30 90 30 l105 0 -2 1373 -3 1372 -2 -1367 -3
-1368 -100 0 c-98 0 -100 1 -90 20 13 25 9 25 -40 0 -22 -11 -42 -20 -45 -20
-3 0 -5 23 -5 50 l0 50 -115 0 -115 0 0 -50 0 -50 -276 0 -276 0 16 25 17 26
-51 -26 c-29 -15 -53 -25 -54 -23 -1 2 -10 15 -19 30 -9 14 -26 29 -37 33 -13
4 -20 15 -20 31 l0 24 280 0 280 0 0 110 0 110 -280 0 -280 0 0 45 0 45 280 0
280 0 0 110 0 110 -280 0 -280 0 20 40 c26 51 26 68 0 45 -20 -18 -20 -17 -20
128 l0 146 148 3 147 3 3 113 3 112 -151 0 c-149 0 -150 0 -150 23 0 14 11 28
31 40 17 9 33 26 36 37 7 24 5 24 53 0 22 -11 42 -20 45 -20 3 0 1 9 -5 20
-11 20 -8 20 265 20 l275 0 0 -50 0 -50 115 0 115 0 0 50 c0 28 2 50 5 50 3 0
23 -9 45 -20 22 -11 42 -20 45 -20 3 0 1 9 -5 20 -10 19 -8 20 60 20 l70 0 0
686 c0 454 -3 683 -10 679 -7 -4 -10 -242 -10 -681 l0 -674 -60 0 c-55 0 -75
10 -50 25 6 3 10 10 10 16 0 5 -22 -2 -50 -16 l-50 -25 0 55 0 56 -112 -3
-113 -3 -3 -52 -3 -51 -269 -2 c-247 -1 -303 4 -270 25 5 3 10 10 10 16 0 5
-22 -2 -48 -15 l-48 -24 -11 28 c-7 18 -21 32 -38 36 -21 5 -26 11 -23 33 l3
26 278 0 277 0 0 108 0 107 -280 0 -280 0 0 45 0 45 150 0 150 0 0 110 0 110
-150 0 -150 0 0 25 c0 17 9 29 30 40 16 8 32 26 36 40 l6 24 49 -24 c58 -30
68 -31 44 -5 -17 19 -15 19 250 22 147 2 271 1 275 -2 5 -3 10 -26 12 -50 l3
-45 113 -3 112 -3 0 56 0 55 50 -25 c28 -14 50 -21 50 -16 0 6 -6 13 -12 18
-9 5 -2 10 20 13 l33 5 0 289 c0 159 -3 291 -6 294 -3 3 -5 -124 -5 -281z
m-510 -57 l0 -100 -555 0 -555 0 0 100 0 100 555 0 555 0 0 -100z m370 -235
l0 -95 -105 0 -105 0 0 95 0 95 105 0 105 0 0 -95z m-1660 -245 l0 -100 -100
0 -100 0 0 100 0 100 100 0 100 0 0 -100z m1030 0 l0 -100 -295 0 -295 0 0
100 0 100 295 0 295 0 0 -100z m-1338 -22 c-23 -23 -12 -28 26 -12 20 9 42 18
49 21 8 3 13 -11 15 -44 l3 -48 115 0 115 0 3 48 3 47 165 0 c162 0 165 0 154
-20 -6 -11 -8 -20 -5 -20 3 0 23 9 45 20 22 11 42 20 45 20 3 0 5 -22 5 -50
l0 -49 148 -3 147 -3 0 -40 0 -40 -277 -3 -278 -2 0 -105 0 -105 278 -2 c277
-3 277 -3 280 -25 2 -16 -5 -26 -27 -38 -54 -27 -56 -97 -4 -130 20 -13 32
-28 33 -42 0 -23 -1 -23 -150 -23 l-150 0 0 -55 0 -55 -50 25 c-27 14 -50 21
-50 16 0 -6 5 -13 10 -16 32 -20 -3 -25 -155 -24 l-165 0 0 50 0 49 -120 0
-120 0 0 -50 c0 -27 -3 -50 -6 -50 -3 0 -25 12 -50 26 -42 25 -58 22 -31 -5 9
-10 9 -15 0 -18 -34 -13 -80 -53 -100 -88 -72 -126 -96 -328 -113 -970 -14
-520 -37 -717 -96 -836 -35 -70 -57 -83 -33 -20 49 130 65 364 79 1136 12 700
27 943 70 1176 35 185 78 290 141 343 31 26 76 39 51 14z m1598 -283 l0 -95
-555 0 -555 0 0 95 0 95 555 0 555 0 0 -95z m370 -240 l0 -95 -105 0 -105 0 0
95 0 95 105 0 105 0 0 -95z m-632 -237 l3 -98 -296 0 -295 0 0 100 0 100 293
-2 292 -3 3 -97z m-1020 -5 l3 -93 -111 0 -110 0 0 95 0 96 108 -3 107 -3 3
-92z m-308 -11 c0 -4 -6 -14 -12 -21 -11 -11 -8 -12 12 -6 14 4 37 14 53 22
l27 14 0 -51 0 -50 120 0 120 0 0 50 0 50 165 0 c91 0 165 -4 165 -8 0 -4 -5
-13 -12 -20 -18 -18 -2 -15 42 8 22 11 42 20 45 20 3 0 5 -25 5 -55 l0 -55
149 0 150 0 0 -140 c1 -77 -2 -140 -5 -140 -3 0 -14 5 -25 11 -18 9 -18 6 6
-40 l25 -51 -280 0 -280 0 0 -110 0 -110 280 0 280 0 0 -45 0 -45 -280 0 -280
0 0 -110 0 -110 280 0 280 0 0 -22 c-1 -15 -13 -30 -33 -43 -52 -33 -50 -103
4 -130 22 -12 29 -22 27 -38 -3 -21 -7 -22 -150 -25 l-148 -3 0 -49 c0 -28 -2
-50 -5 -50 -3 0 -23 9 -45 20 -22 11 -42 20 -45 20 -3 0 -1 -9 5 -20 11 -20 8
-20 -155 -20 l-165 0 0 50 0 50 -120 0 -120 0 0 -50 c0 -27 -2 -50 -5 -50 -3
0 -28 11 -56 25 l-50 26 17 -25 c15 -25 15 -26 -7 -35 -30 -11 -71 -56 -95
-101 -9 -19 -43 -109 -75 -199 -34 -96 -73 -186 -94 -218 -39 -59 -59 -68 -26
-12 65 111 93 357 106 944 13 593 48 815 140 912 39 40 65 54 65 35z m1590
-577 l0 -95 -197 2 -198 3 -3 48 c-2 36 1 48 10 44 7 -2 13 -16 13 -30 -1 -32
11 -36 20 -7 10 31 -10 58 -39 53 -22 -5 -25 -11 -28 -57 l-3 -51 -160 0 -160
0 -3 48 c-2 36 1 48 10 44 7 -2 13 -16 13 -30 -1 -32 11 -36 20 -7 10 31 -10
58 -39 53 -22 -5 -25 -11 -28 -57 l-3 -51 -167 -3 -168 -2 0 95 0 95 555 0
555 0 0 -95z m0 -305 l0 -100 -555 0 -555 0 0 100 0 100 555 0 555 0 0 -100z
m370 -235 l0 -95 -105 0 -105 0 0 95 0 95 105 0 105 0 0 -95z m-1652 -242 l3
-93 -111 0 -110 0 0 95 0 96 108 -3 107 -3 3 -92z m1020 0 l-3 -98 -292 -3
-293 -2 0 100 0 100 295 0 296 0 -3 -97z m-1128 -108 l115 0 5 50 c4 44 8 49
28 48 12 0 86 -1 164 -2 110 -1 139 -4 130 -13 -26 -26 -10 -27 38 -3 l50 25
0 -55 0 -55 151 0 150 0 -3 -42 -3 -43 -277 -3 -278 -2 0 -105 0 -105 278 -2
277 -3 3 -22 c3 -17 -3 -26 -22 -33 -65 -24 -61 -119 7 -143 10 -4 17 -17 17
-32 l0 -25 -150 0 -150 0 0 -55 0 -55 -50 25 c-27 14 -50 21 -50 16 0 -6 5
-13 10 -16 32 -20 -3 -26 -155 -24 l-164 1 -3 52 -3 51 -115 0 -115 0 -3 -47
c-2 -27 -5 -48 -8 -48 -3 0 -22 9 -44 20 -44 23 -60 26 -42 8 18 -18 14 -28
-11 -28 -49 0 -117 29 -206 89 -51 33 -102 61 -112 61 -27 0 -24 5 22 47 52
47 85 113 149 299 65 187 112 264 161 264 8 0 5 -7 -6 -20 -23 -26 -11 -25 45
5 l45 23 5 -51 5 -52 115 0z m1390 -200 l0 -95 -555 0 -555 0 0 95 0 95 555 0
555 0 0 -95z m370 -235 l0 -100 -105 0 -105 0 0 93 c0 52 3 97 7 100 3 4 51 7
105 7 l98 0 0 -100z m-632 -242 l3 -98 -296 0 -295 0 0 100 0 100 293 -2 292
-3 3 -97z m-1020 0 l-3 -93 -107 -3 -108 -3 0 96 0 95 110 0 111 0 -3 -92z"/>
</g>
</svg>
